<svg id="Layer_1" data-name="Layer 1" xmlns="http://www.w3.org/2000/svg" viewBox="0 0 22.38 22.38"><defs><style>.cls-1{fill:#fff;}.cls-2{fill:#548dff;}</style></defs><rect class="cls-1" width="22.38" height="22.38" rx="5"/><path d="M15,5.14c-2.49,0-5.06,0-7.65,0A2.17,2.17,0,0,0,5.14,7.37c0,2.3,0,4.8,0,7.65a2.14,2.14,0,0,0,1.75,2.17,5.15,5.15,0,0,0,1,.06h.3q1.44,0,2.88,0a.4.4,0,0,0,.29-.09.26.26,0,0,0,.07-.19c0-.25-.26-.28-.37-.28H7.48A1.65,1.65,0,0,1,5.7,14.92V7.47A1.64,1.64,0,0,1,7.47,5.7h7.44a1.64,1.64,0,0,1,1.77,1.77V11.1c0,.12,0,.37.28.37a.25.25,0,0,0,.19-.07.36.36,0,0,0,.1-.28v-.81c0-1,0-2,0-2.93A2.2,2.2,0,0,0,15,5.14Z"/><path d="M8.85,11.61c0,.3,0,.6,0,.9a1.25,1.25,0,0,0,.62,1,1.19,1.19,0,0,0,1.13,0c.76-.4,1.52-.85,2.27-1.33a1.2,1.2,0,0,0,.54-1,1.17,1.17,0,0,0-.54-1c-.76-.49-1.52-.93-2.26-1.32a1.19,1.19,0,0,0-1.13,0,1.24,1.24,0,0,0-.63,1c0,.3,0,.61,0,.9v.84Zm.56-.77V10a.74.74,0,0,1,.34-.65.7.7,0,0,1,.72,0c.66.38,1.33.76,2,1.16a.68.68,0,0,1,0,1.23c-.66.4-1.32.78-2,1.16a.81.81,0,0,1-.41.12A.59.59,0,0,1,9.75,13a.72.72,0,0,1-.34-.64V10.84Z"/><path class="cls-2" d="M16.93,15H15.61V13.66a.55.55,0,0,0-1.1,0V15H13.19a.55.55,0,0,0-.55.55.55.55,0,0,0,.55.55h1.32V17.4a.55.55,0,0,0,1.1,0V16.08h1.32a.54.54,0,0,0,.55-.55A.55.55,0,0,0,16.93,15Z"/></svg>