<svg id="Layer_1" data-name="Layer 1" xmlns="http://www.w3.org/2000/svg" viewBox="0 0 22.38 22.38"><defs><style>.cls-1{fill:#fff;}.cls-2{fill:#548dff;}</style></defs><rect class="cls-1" width="22.38" height="22.38" rx="5"/><path d="M17,10.47V7.06a1.94,1.94,0,0,0-2-2H6.71a1.91,1.91,0,0,0-2,2v8.65a2,2,0,0,0,2,2h5.59v-.54H6.8a1.38,1.38,0,0,1-1.37-.81,1.59,1.59,0,0,1-.13-.61c0-.46,0-.92,0-1.37V14a.37.37,0,0,1,.09-.23l2.16-2.18.33-.33.06-.05L8,11.11l.06.1,0,0,0,.07,2,2a.41.41,0,0,0,.28.15.46.46,0,0,0,.28-.15l3-3,.07-.09.07-.08.09.06,2,2a1,1,0,0,0,.57.31.45.45,0,0,0,.32-.12.56.56,0,0,0,.16-.4Zm-.57,1.29-.22-.2-.08-.08L14.24,9.56c-.12-.13-.21-.18-.3-.18a.45.45,0,0,0-.29.17l-3,3-.07.09-.14.18-.08-.11-.05-.07,0-.07-2-2A.41.41,0,0,0,8,10.42H8a.41.41,0,0,0-.27.15C7,11.28,6.3,12,5.6,12.69l0,.07-.09.12-.16-.1V7.05A1.41,1.41,0,0,1,6.75,5.64H15a1.38,1.38,0,0,1,1.47,1.45v4.67Z"/><path class="cls-2" d="M17.14,15H15.82V13.67a.55.55,0,1,0-1.1,0V15H13.4a.55.55,0,1,0,0,1.1h1.32v1.32a.55.55,0,1,0,1.1,0V16.09h1.32a.55.55,0,0,0,0-1.1Z"/></svg>