<svg id="Layer_1" data-name="Layer 1" xmlns="http://www.w3.org/2000/svg" viewBox="0 0 32.6 23.91"><defs><style>.cls-1{fill:#749fff;}</style></defs><path class="cls-1" d="M21.79,16.22a1.65,1.65,0,0,0-1.15-.54h0a1.44,1.44,0,0,0-1,.46,1.47,1.47,0,0,0,.09,2.16c.3.3.61.6.91.91s.77.75,1.14,1.14q1.52,1.54,3,3.1a1.55,1.55,0,0,0,1.12.46H26a1.56,1.56,0,0,0,1.13-.53c.23-.28.44-.51.64-.72L32,18.33a1.68,1.68,0,0,0,.56-1.2,1.36,1.36,0,0,0-.45-1,1.45,1.45,0,0,0-2.18.11l-.21.21c-.38.37-.75.73-1.11,1.11-.17.18-.33.36-.49.55l-.36.42-.42-.29V10.58c0-.76,0-1.55,0-2.32A1.34,1.34,0,0,0,26,7a1.4,1.4,0,0,0-1.53,1.08,3.13,3.13,0,0,0,0,.63V18.83l-1.12-1.12Z"/><path class="cls-1" d="M22.42,0H1.48A1.39,1.39,0,0,0,0,1.37,1.39,1.39,0,0,0,1.32,3,3.93,3.93,0,0,0,1.8,3H22.57A1.4,1.4,0,0,0,23.9,1.44,1.39,1.39,0,0,0,22.42,0Z"/><path class="cls-1" d="M1.82,8.72H1.74a4.1,4.1,0,0,0-.51,0,1.3,1.3,0,0,0-1.15,1,1.59,1.59,0,0,0,.19,1.4,1.61,1.61,0,0,0,1.29.57h12c1.25,0,2.5,0,3.74,0a1.32,1.32,0,0,0,1.32-1.34,1.39,1.39,0,0,0-1-1.56,3.21,3.21,0,0,0-.71,0Z"/><path class="cls-1" d="M12.5,17.51a3,3,0,0,0-.82-.09c-2.21,0-4.42,0-6.62,0H2.61c-.38,0-.75,0-1.12,0a1.4,1.4,0,0,0-1.41,1,1.58,1.58,0,0,0,.19,1.41,1.58,1.58,0,0,0,1.3.59H12a1.34,1.34,0,0,0,1.41-1.26A1.4,1.4,0,0,0,12.5,17.51Z"/></svg>