<svg id="Layer_1" data-name="Layer 1" xmlns="http://www.w3.org/2000/svg" viewBox="0 0 32.53 32.52"><defs><style>.cls-1{fill:#749fff;}</style></defs><path class="cls-1" d="M.39,32.19a1.18,1.18,0,0,0,1.29.23l2.71-.87,3.39-1.1a1,1,0,0,1,.28-.05.89.89,0,0,1,.4.11,15.67,15.67,0,0,0,8.31,2,15.94,15.94,0,0,0,13.07-7.31,15.67,15.67,0,0,0,2.61-7.3,16.26,16.26,0,0,0-10.9-17A15.77,15.77,0,0,0,17.46.05a1.08,1.08,0,0,1-.19,0L17.2,0H15.3l-.6.08c-.42.05-.85.1-1.27.18A16.08,16.08,0,0,0,1.91,8.63,15.33,15.33,0,0,0,.06,15a1.42,1.42,0,0,1,0,.2s0,0,0,.08v2c0,.16.05.34.07.51.06.38.11.76.17,1.14A15.37,15.37,0,0,0,2,24.06a.82.82,0,0,1,.05.7c-.47,1.46-.93,2.92-1.4,4.38L0,31.08a.1.1,0,0,1,0,.05v.44a2,2,0,0,1,.11.2A1.92,1.92,0,0,0,.39,32.19ZM3.81,10.12a13.53,13.53,0,0,1,9.65-7.46,13.35,13.35,0,0,1,11,2.4,13.4,13.4,0,0,1,5.4,8.37,13.4,13.4,0,0,1-2.36,11,13.48,13.48,0,0,1-8.4,5.46,14.22,14.22,0,0,1-2.94.32A13.38,13.38,0,0,1,9.53,28.4a2.5,2.5,0,0,0-2.34-.24c-.9.33-1.79.61-2.74.91-.42.12-.83.25-1.25.39L3,29.52l.06-.19.86-2.66.15-.49c.14-.45.29-.91.45-1.37a1.46,1.46,0,0,0-.15-1.34,13.65,13.65,0,0,1-1.84-5A13.34,13.34,0,0,1,3.81,10.12Z"/><path class="cls-1" d="M9.89,14.77h0a1.46,1.46,0,0,0-1,.43,1.48,1.48,0,0,0-.45,1.06,1.5,1.5,0,0,0,1.48,1.5h0a1.51,1.51,0,0,0,1.05-.44,1.47,1.47,0,0,0,.45-1.06A1.5,1.5,0,0,0,9.89,14.77Z"/><path class="cls-1" d="M16.26,14.77h0a1.5,1.5,0,0,0,0,3h0a1.51,1.51,0,0,0,1.48-1.5,1.52,1.52,0,0,0-1.5-1.49Z"/><path class="cls-1" d="M22.65,14.77h0a1.49,1.49,0,0,0-1,2.55,1.51,1.51,0,0,0,1,.44h0a1.49,1.49,0,0,0,1.05-2.55A1.47,1.47,0,0,0,22.65,14.77Z"/></svg>