<svg id="Layer_1" data-name="Layer 1" xmlns="http://www.w3.org/2000/svg" viewBox="0 0 11.02 11.02"><defs><style>.cls-1{fill:#f4f8f9;}</style></defs><rect class="cls-1" width="11.02" height="11.02" rx="2.16"/><path d="M2.26,3.58l0-.08a.81.81,0,0,1,.8-.64H5.7a.23.23,0,1,1,0,.45H3.14a.39.39,0,0,0-.41.32.34.34,0,0,0,0,.1V8.11a.38.38,0,0,0,.41.41H7.52a.38.38,0,0,0,.41-.41V5.59a.49.49,0,0,1,0-.12.22.22,0,0,1,.23-.16.21.21,0,0,1,.21.17.34.34,0,0,1,0,.1V8.11A.84.84,0,0,1,7.51,9H3.16a.87.87,0,0,1-.89-.72V3.58Z"/><path d="M8.88,1.63l.25.08A.84.84,0,0,1,9.4,3c-.18.2-.37.38-.56.56L6.25,6.19A.44.44,0,0,1,6,6.32l-1,.2a.23.23,0,0,1-.27-.28q.09-.53.21-1A.3.3,0,0,1,5,5c.87-.88,1.75-1.76,2.63-2.63l.47-.48a.91.91,0,0,1,.51-.27h.23ZM5.24,6h.08l.52-.11A.21.21,0,0,0,6,5.81L8.39,3.4s0,0,0,0L7.9,2.81l0,0L5.41,5.29l0,.06C5.33,5.56,5.29,5.78,5.24,6Zm3-3.53L8.77,3a3.83,3.83,0,0,0,.29-.28A.37.37,0,0,0,9,2.2a.38.38,0,0,0-.52,0C8.42,2.27,8.33,2.38,8.24,2.47Z"/></svg>