<svg id="Layer_1" data-name="Layer 1" xmlns="http://www.w3.org/2000/svg" viewBox="0 0 24.24 27.12"><defs><style>.cls-1{fill:#fff;}</style></defs><path class="cls-1" d="M19.61,10.43a1.05,1.05,0,0,0,.28.75.89.89,0,0,0,.63.25h0a.92.92,0,0,0,.91-1V9c0-1.61,0-3.27,0-4.9A4.11,4.11,0,0,0,17.25,0H4.19A4.47,4.47,0,0,0,2.82.23,4.09,4.09,0,0,0,0,4.24V21.46c0,.16,0,.33,0,.49,0,.38,0,.78,0,1.16a4,4,0,0,0,2.33,3.58,3.83,3.83,0,0,0,.92.31l.42.12H6.76l.06,0a.92.92,0,0,0,.69-1.05.93.93,0,0,0-1-.77c-.23,0-.45,0-.67,0-.51,0-1,0-1.56,0A2.83,2.83,0,0,1,3.15,25a2.23,2.23,0,0,1-1.3-2.17V4.25a2.29,2.29,0,0,1,2.32-2.4q5.57,0,11.13,0h2a2.25,2.25,0,0,1,1.41.46,2.35,2.35,0,0,1,.92,2V6.58C19.6,7.86,19.6,9.14,19.61,10.43Z"/><path class="cls-1" d="M24.18,24.65a7.19,7.19,0,0,0-2.62-4.21,9.77,9.77,0,0,0-1-.68l-.46-.3L20,19.37l.1-.13a4,4,0,0,0-.26-5.51,4,4,0,0,0-5.11-.41,3.93,3.93,0,0,0-1.6,2.33A4.06,4.06,0,0,0,14,19.28l.11.13-.21.12-.09,0a7.37,7.37,0,0,0-3.93,5,2,2,0,0,0,1,2.35,2.3,2.3,0,0,0,.42.17l.19.07h11.1l.12-.05A2,2,0,0,0,24.18,24.65ZM17,14.43H17a2.19,2.19,0,0,1,2.14,2.22A2.22,2.22,0,0,1,17,18.8h0a2.22,2.22,0,0,1-1.56-.7,2.09,2.09,0,0,1-.6-1.54A2.2,2.2,0,0,1,17,14.43ZM11.6,25.27l0-.17a5.47,5.47,0,0,1,5.31-4.42H17a5.52,5.52,0,0,1,5.37,4.41l0,.18Z"/><path class="cls-1" d="M16.16,6.43H5.22a1,1,0,0,0-.69.3.94.94,0,0,0-.24.69.93.93,0,0,0,1,.85h11A.93.93,0,0,0,17,7.85a.9.9,0,0,0,.1-.78A.93.93,0,0,0,16.16,6.43Z"/><path class="cls-1" d="M12,10.72H5.22a.88.88,0,0,0-.78.41.87.87,0,0,0-.05.92.89.89,0,0,0,.85.5H12a.92.92,0,1,0,0-1.83Z"/><path class="cls-1" d="M9.57,15H5.29a.92.92,0,1,0,0,1.84H9.58a1,1,0,0,0,.72-.26.89.89,0,0,0,.28-.66A.93.93,0,0,0,9.57,15Z"/></svg>