<svg width="33" height="33" viewBox="0 0 33 33" fill="none" xmlns="http://www.w3.org/2000/svg">
<circle cx="16.5" cy="16.5" r="16.5" fill="white"/>
<path d="M10 10.4773H9.9V10.5773V11.552V11.652H10H22.7356H22.8356V11.552V10.5773V10.4773H22.7356H10Z" fill="#A7A7A7" stroke="#A7A7A7" stroke-width="0.2"/>
<mask id="path-3-outside-1" maskUnits="userSpaceOnUse" x="13.1445" y="8" width="7" height="4" fill="black">
<rect fill="white" x="13.1445" y="8" width="7" height="4"/>
<path d="M18.9854 11.4204H18.0675V10.4376C18.0686 10.3691 18.0559 10.301 18.0302 10.2374C18.0045 10.1738 17.9662 10.1161 17.9177 10.0676C17.8693 10.0191 17.8115 9.98088 17.7479 9.95514C17.6844 9.92941 17.6163 9.91671 17.5477 9.91781H15.5822C15.5136 9.91671 15.4455 9.92941 15.3819 9.95514C15.3184 9.98088 15.2606 10.0191 15.2121 10.0676C15.1637 10.1161 15.1254 10.1738 15.0997 10.2374C15.0739 10.301 15.0612 10.3691 15.0623 10.4376V11.4204H14.1445V10.4376C14.1488 10.0577 14.3016 9.69444 14.5703 9.42574C14.839 9.15704 15.2022 9.00422 15.5822 9H17.5477C17.9277 9.00422 18.2909 9.15704 18.5596 9.42574C18.8283 9.69444 18.9811 10.0577 18.9854 10.4376V11.4204Z"/>
</mask>
<path d="M18.9854 11.4204H18.0675V10.4376C18.0686 10.3691 18.0559 10.301 18.0302 10.2374C18.0045 10.1738 17.9662 10.1161 17.9177 10.0676C17.8693 10.0191 17.8115 9.98088 17.7479 9.95514C17.6844 9.92941 17.6163 9.91671 17.5477 9.91781H15.5822C15.5136 9.91671 15.4455 9.92941 15.3819 9.95514C15.3184 9.98088 15.2606 10.0191 15.2121 10.0676C15.1637 10.1161 15.1254 10.1738 15.0997 10.2374C15.0739 10.301 15.0612 10.3691 15.0623 10.4376V11.4204H14.1445V10.4376C14.1488 10.0577 14.3016 9.69444 14.5703 9.42574C14.839 9.15704 15.2022 9.00422 15.5822 9H17.5477C17.9277 9.00422 18.2909 9.15704 18.5596 9.42574C18.8283 9.69444 18.9811 10.0577 18.9854 10.4376V11.4204Z" fill="#A7A7A7"/>
<path d="M18.0675 11.4204H17.8675V11.6204H18.0675V11.4204ZM18.0675 10.4376L17.8675 10.4344V10.4376H18.0675ZM17.5477 9.91781V10.1178L17.5509 10.1178L17.5477 9.91781ZM15.5822 9.91781L15.579 10.1178H15.5822V9.91781ZM15.0623 10.4376H15.2624L15.2623 10.4344L15.0623 10.4376ZM15.0623 11.4204V11.6204H15.2623V11.4204H15.0623ZM14.1445 11.4204H13.9445V11.6204H14.1445V11.4204ZM14.1445 10.4376L13.9445 10.4354V10.4376H14.1445ZM15.5822 9V8.79999L15.5799 8.80001L15.5822 9ZM17.5477 9L17.5499 8.8H17.5477V9ZM18.9854 10.4376H19.1854L19.1853 10.4354L18.9854 10.4376ZM18.9854 11.2204H18.0675V11.6204H18.9854V11.2204ZM18.2675 11.4204V10.4376H17.8675V11.4204H18.2675ZM18.2675 10.4408C18.269 10.3455 18.2514 10.2508 18.2156 10.1624L17.8448 10.3125C17.8605 10.3512 17.8682 10.3927 17.8676 10.4344L18.2675 10.4408ZM18.2156 10.1624C18.1798 10.0739 18.1266 9.99364 18.0592 9.92619L17.7763 10.209C17.8059 10.2386 17.8292 10.2737 17.8448 10.3125L18.2156 10.1624ZM18.0592 9.92619C17.9917 9.85875 17.9114 9.80555 17.823 9.76976L17.6729 10.1405C17.7116 10.1562 17.7468 10.1795 17.7763 10.209L18.0592 9.92619ZM17.823 9.76976C17.7346 9.73397 17.6399 9.71631 17.5445 9.71783L17.5509 10.1178C17.5927 10.1171 17.6342 10.1248 17.6729 10.1405L17.823 9.76976ZM17.5477 9.71781H15.5822V10.1178H17.5477V9.71781ZM15.5854 9.71783C15.49 9.71631 15.3953 9.73397 15.3069 9.76976L15.457 10.1405C15.4957 10.1248 15.5372 10.1171 15.579 10.1178L15.5854 9.71783ZM15.3069 9.76976C15.2185 9.80555 15.1382 9.85875 15.0707 9.92619L15.3536 10.209C15.3831 10.1795 15.4183 10.1562 15.457 10.1405L15.3069 9.76976ZM15.0707 9.92619C15.0033 9.99364 14.9501 10.0739 14.9143 10.1624L15.2851 10.3125C15.3007 10.2737 15.324 10.2386 15.3536 10.209L15.0707 9.92619ZM14.9143 10.1624C14.8785 10.2508 14.8608 10.3455 14.8624 10.4408L15.2623 10.4344C15.2616 10.3927 15.2694 10.3512 15.2851 10.3125L14.9143 10.1624ZM14.8623 10.4376V11.4204H15.2623V10.4376H14.8623ZM15.0623 11.2204H14.1445V11.6204H15.0623V11.2204ZM14.3445 11.4204V10.4376H13.9445V11.4204H14.3445ZM14.3445 10.4398C14.3482 10.1121 14.48 9.7989 14.7117 9.56716L14.4288 9.28432C14.1232 9.58998 13.9493 10.0032 13.9445 10.4354L14.3445 10.4398ZM14.7117 9.56716C14.9434 9.33543 15.2567 9.20363 15.5844 9.19999L15.5799 8.80001C15.1477 8.80482 14.7345 8.97866 14.4288 9.28432L14.7117 9.56716ZM15.5822 9.2H17.5477V8.8H15.5822V9.2ZM17.5455 9.19999C17.8732 9.20363 18.1865 9.33543 18.4182 9.56716L18.701 9.28432C18.3954 8.97866 17.9822 8.80482 17.5499 8.80001L17.5455 9.19999ZM18.4182 9.56716C18.6499 9.7989 18.7817 10.1121 18.7854 10.4398L19.1853 10.4354C19.1805 10.0032 19.0067 9.58998 18.701 9.28432L18.4182 9.56716ZM18.7854 10.4376V11.4204H19.1854V10.4376H18.7854Z" fill="#A7A7A7" mask="url(#path-3-outside-1)"/>
<mask id="path-5-outside-2" maskUnits="userSpaceOnUse" x="10.1445" y="10" width="13" height="15" fill="black">
<rect fill="white" x="10.1445" y="10" width="13" height="15"/>
<path d="M19.4779 24.2798H13.5974C13.2116 24.2587 12.8459 24.1007 12.566 23.8342C12.2862 23.5678 12.1105 23.2103 12.0705 22.8259L11.1445 11.065L12.1273 11L13.0451 22.7609C13.0604 22.8991 13.1244 23.0273 13.2256 23.1225C13.3268 23.2178 13.4586 23.2739 13.5974 23.2807H19.4779C19.6178 23.2773 19.7515 23.2223 19.8534 23.1264C19.9553 23.0305 20.0183 22.9004 20.0302 22.7609L20.948 11L21.9308 11.065L21.0049 22.8259C20.9767 23.2147 20.8047 23.5791 20.5223 23.8479C20.24 24.1167 19.8676 24.2707 19.4779 24.2798Z"/>
</mask>
<path d="M19.4779 24.2798H13.5974C13.2116 24.2587 12.8459 24.1007 12.566 23.8342C12.2862 23.5678 12.1105 23.2103 12.0705 22.8259L11.1445 11.065L12.1273 11L13.0451 22.7609C13.0604 22.8991 13.1244 23.0273 13.2256 23.1225C13.3268 23.2178 13.4586 23.2739 13.5974 23.2807H19.4779C19.6178 23.2773 19.7515 23.2223 19.8534 23.1264C19.9553 23.0305 20.0183 22.9004 20.0302 22.7609L20.948 11L21.9308 11.065L21.0049 22.8259C20.9767 23.2147 20.8047 23.5791 20.5223 23.8479C20.24 24.1167 19.8676 24.2707 19.4779 24.2798Z" fill="#A7A7A7"/>
<path d="M13.5974 24.2798L13.5865 24.4798H13.5974V24.2798ZM12.0705 22.8259L11.871 22.8416L11.8715 22.8466L12.0705 22.8259ZM11.1445 11.065L11.1313 10.8654L10.9293 10.8788L10.9451 11.0807L11.1445 11.065ZM12.1273 11L12.3267 10.9844L12.3113 10.7874L12.1141 10.8004L12.1273 11ZM13.0451 22.7609L12.8456 22.7765L12.8463 22.7829L13.0451 22.7609ZM13.5974 23.2807L13.5875 23.4807H13.5974V23.2807ZM19.4779 23.2807V23.4808L19.4829 23.4807L19.4779 23.2807ZM20.0302 22.7609L20.2295 22.778L20.2296 22.7765L20.0302 22.7609ZM20.948 11L20.9612 10.8004L20.764 10.7874L20.7486 10.9844L20.948 11ZM21.9308 11.065L22.1302 11.0807L22.1461 10.8788L21.944 10.8654L21.9308 11.065ZM21.0049 22.8259L20.8055 22.8102L20.8054 22.8115L21.0049 22.8259ZM19.4779 24.0798H13.5974V24.4798H19.4779V24.0798ZM13.6084 24.0801C13.27 24.0616 12.9493 23.923 12.7039 23.6894L12.4281 23.9791C12.7424 24.2783 13.1531 24.4558 13.5865 24.4795L13.6084 24.0801ZM12.7039 23.6894C12.4585 23.4557 12.3045 23.1422 12.2694 22.8052L11.8715 22.8466C11.9165 23.2783 12.1138 23.6798 12.4281 23.9791L12.7039 23.6894ZM12.2698 22.8102L11.3439 11.0493L10.9451 11.0807L11.8711 22.8416L12.2698 22.8102ZM11.1577 11.2645L12.1405 11.1996L12.1141 10.8004L11.1313 10.8654L11.1577 11.2645ZM11.9279 11.0156L12.8457 22.7765L13.2445 22.7454L12.3267 10.9844L11.9279 11.0156ZM12.8463 22.7829C12.8668 22.9683 12.9527 23.1403 13.0885 23.2682L13.3627 22.9769C13.2961 22.9142 13.254 22.8299 13.2439 22.739L12.8463 22.7829ZM13.0885 23.2682C13.2243 23.396 13.4012 23.4713 13.5875 23.4805L13.6073 23.081C13.516 23.0765 13.4292 23.0396 13.3627 22.9769L13.0885 23.2682ZM13.5974 23.4807H19.4779V23.0807H13.5974V23.4807ZM19.4829 23.4807C19.672 23.476 19.8527 23.4017 19.9905 23.272L19.7163 22.9807C19.6503 23.0429 19.5636 23.0785 19.4729 23.0808L19.4829 23.4807ZM19.9905 23.272C20.1282 23.1424 20.2133 22.9665 20.2295 22.778L19.8309 22.7438C19.8232 22.8342 19.7824 22.9186 19.7163 22.9807L19.9905 23.272ZM20.2296 22.7765L21.1474 11.0156L20.7486 10.9844L19.8308 22.7454L20.2296 22.7765ZM20.9348 11.1996L21.9176 11.2645L21.944 10.8654L20.9612 10.8004L20.9348 11.1996ZM21.7314 11.0493L20.8055 22.8102L21.2042 22.8416L22.1302 11.0807L21.7314 11.0493ZM20.8054 22.8115C20.7808 23.1507 20.6307 23.4685 20.3844 23.7031L20.6602 23.9928C20.9786 23.6896 21.1726 23.2788 21.2043 22.8404L20.8054 22.8115ZM20.3844 23.7031C20.1381 23.9376 19.8132 24.0719 19.4732 24.0798L19.4826 24.4797C19.922 24.4695 20.3419 24.2959 20.6602 23.9928L20.3844 23.7031Z" fill="#A7A7A7" mask="url(#path-5-outside-2)"/>
</svg>
