<svg xmlns="http://www.w3.org/2000/svg" width="524.08" height="361.773" viewBox="0 0 524.08 361.773">
  <g id="Group_21723" data-name="Group 21723" transform="translate(26.445 -37.223)">
    <g id="Background_Complete" data-name="Background Complete" transform="translate(0 52.565)">
      <g id="Group_17558" data-name="Group 17558">
        <g id="Group_17556" data-name="Group 17556">
          <rect id="Rectangle_4214" data-name="Rectangle 4214" width="432.667" height="0.216" transform="translate(0 283.35)" fill="#ebebeb"/>
          <path id="Path_32222" data-name="Path 32222" d="M210.241,299.71H43.146a4.945,4.945,0,0,1-4.939-4.939V59.891a4.945,4.945,0,0,1,4.939-4.938h167.1a4.944,4.944,0,0,1,4.938,4.938V294.771A4.945,4.945,0,0,1,210.241,299.71ZM43.146,55.169a4.728,4.728,0,0,0-4.723,4.722V294.771a4.728,4.728,0,0,0,4.723,4.723h167.1a4.728,4.728,0,0,0,4.722-4.723V59.891a4.727,4.727,0,0,0-4.722-4.722Z" transform="translate(-5.145 -54.953)" fill="#ebebeb"/>
          <path id="Path_32223" data-name="Path 32223" d="M426.538,299.71H259.443a4.945,4.945,0,0,1-4.938-4.939V59.891a4.944,4.944,0,0,1,4.938-4.938H426.538a4.945,4.945,0,0,1,4.94,4.938V294.771A4.946,4.946,0,0,1,426.538,299.71ZM259.443,55.169a4.727,4.727,0,0,0-4.722,4.722V294.771a4.728,4.728,0,0,0,4.722,4.723H426.538a4.729,4.729,0,0,0,4.724-4.723V59.891a4.728,4.728,0,0,0-4.724-4.722Z" transform="translate(-34.273 -54.953)" fill="#ebebeb"/>
        </g>
        <g id="Group_17557" data-name="Group 17557" transform="translate(45.395 289.242)">
          <rect id="Rectangle_4215" data-name="Rectangle 4215" width="27.317" height="0.216" transform="translate(316.603 2.348)" fill="#ebebeb"/>
          <rect id="Rectangle_4216" data-name="Rectangle 4216" width="28.909" height="0.216" transform="translate(215.872)" fill="#ebebeb"/>
          <rect id="Rectangle_4217" data-name="Rectangle 4217" width="54.025" height="0.216" transform="translate(297.785 10.384)" fill="#ebebeb"/>
          <rect id="Rectangle_4218" data-name="Rectangle 4218" width="16.644" height="0.216" transform="translate(0 8.93)" fill="#ebebeb"/>
          <rect id="Rectangle_4219" data-name="Rectangle 4219" width="26.213" height="0.216" transform="translate(24.349 8.93)" fill="#ebebeb"/>
          <rect id="Rectangle_4220" data-name="Rectangle 4220" width="47.209" height="0.216" transform="translate(118.654 5.276)" fill="#ebebeb"/>
        </g>
      </g>
      <g id="Group_17566" data-name="Group 17566" transform="translate(9.924 12.939)">
        <g id="Group_17563" data-name="Group 17563" transform="translate(164.979 52.154)">
          <g id="Group_17562" data-name="Group 17562">
            <g id="Group_17561" data-name="Group 17561">
              <g id="Group_17559" data-name="Group 17559" transform="translate(0 0.001)">
                <path id="Path_32224" data-name="Path 32224" d="M277.6,118.13l-62.326,62.326V388.039H434.009V118.13Z" transform="translate(-214.69 -117.542)" fill="#fff"/>
                <path id="Path_32225" data-name="Path 32225" d="M434.06,388.677H215.328a.589.589,0,0,1-.588-.588V180.506a.593.593,0,0,1,.173-.417l62.326-62.326a.588.588,0,0,1,.417-.172h156.4a.589.589,0,0,1,.588.588V388.089A.589.589,0,0,1,434.06,388.677ZM215.917,387.5H433.471V118.769H277.9L215.917,180.75Z" transform="translate(-214.74 -117.592)" fill="#e0e0e0"/>
              </g>
              <path id="Path_32226" data-name="Path 32226" d="M215.278,180.457l65.395,8.436L277.6,118.13Z" transform="translate(-214.69 -117.541)" fill="#e6e6e6"/>
              <g id="Group_17560" data-name="Group 17560" transform="translate(0)">
                <path id="Path_32227" data-name="Path 32227" d="M215.278,180.457H277.6V118.13Z" transform="translate(-214.69 -117.541)" fill="#fff"/>
                <path id="Path_32228" data-name="Path 32228" d="M277.656,181.095H215.328a.589.589,0,0,1-.416-1.005l62.326-62.326a.589.589,0,0,1,1.005.417v62.326A.589.589,0,0,1,277.656,181.095Zm-60.906-1.177h60.318V119.6Z" transform="translate(-214.74 -117.591)" fill="#e0e0e0"/>
              </g>
            </g>
            <path id="Path_32229" data-name="Path 32229" d="M332.424,261.684l37.2-37.2a8.949,8.949,0,1,0-12.655-12.655l-37.2,37.2-37.2-37.2a8.948,8.948,0,0,0-12.654,12.655l37.2,37.2-37.2,37.2a8.948,8.948,0,0,0,12.654,12.654l37.2-37.2,37.2,37.2a8.948,8.948,0,1,0,12.655-12.654Z" transform="translate(-209.815 -109.005)" fill="#f0f0f0"/>
          </g>
        </g>
        <g id="Group_17564" data-name="Group 17564">
          <path id="Path_32230" data-name="Path 32230" d="M227.459,233.466h0a11.184,11.184,0,0,1-15.816,0l-35.888-35.888,15.815-15.816,35.889,35.889A11.183,11.183,0,0,1,227.459,233.466Z" transform="translate(-53.414 -59.424)" fill="#f0f0f0"/>
          <path id="Rectangle_4221" data-name="Rectangle 4221" d="M0,0H22.366a0,0,0,0,1,0,0V2.761a7.39,7.39,0,0,1-7.39,7.39H7.39A7.39,7.39,0,0,1,0,2.76V0A0,0,0,0,1,0,0Z" transform="matrix(0.707, -0.707, 0.707, 0.707, 122.341, 138.154)" fill="#e0e0e0"/>
          <path id="Path_32231" data-name="Path 32231" d="M86.655,92.663a77.7,77.7,0,1,0,109.882,0A77.693,77.693,0,0,0,86.655,92.663Zm105.391,105.39a71.347,71.347,0,1,1,0-100.9A71.348,71.348,0,0,1,192.046,198.053Z" transform="translate(-63.896 -69.905)" fill="#e0e0e0"/>
          <path id="Path_32232" data-name="Path 32232" d="M172.484,188.085a2.6,2.6,0,0,1-1.839-4.437,55.193,55.193,0,0,0,0-77.964,2.6,2.6,0,0,1,3.676-3.677,60.4,60.4,0,0,1,0,85.317A2.59,2.59,0,0,1,172.484,188.085Z" transform="translate(-53.964 -66.968)" fill="#e0e0e0"/>
          <path id="Path_32233" data-name="Path 32233" d="M83.934,159.844a2.6,2.6,0,0,1-2.526-2,60.563,60.563,0,0,1,8.312-47.15,2.6,2.6,0,0,1,4.339,2.864,55.347,55.347,0,0,0-7.593,43.087,2.6,2.6,0,0,1-2.532,3.2Z" transform="translate(-62.407 -66.193)" fill="#e0e0e0"/>
          <path id="Path_32234" data-name="Path 32234" d="M98.78,182.4a2.593,2.593,0,0,1-1.839-.761,60.263,60.263,0,0,1-11.48-16.008,2.6,2.6,0,1,1,4.662-2.3,55.1,55.1,0,0,0,10.494,14.628A2.6,2.6,0,0,1,98.78,182.4Z" transform="translate(-61.901 -61.286)" fill="#e0e0e0"/>
        </g>
        <g id="Group_17565" data-name="Group 17565" transform="translate(132.603 194.866)">
          <path id="Rectangle_4222" data-name="Rectangle 4222" d="M0,0H14.462a0,0,0,0,1,0,0V34.133a5.916,5.916,0,0,1-5.916,5.916H5.916A5.916,5.916,0,0,1,0,34.133V0A0,0,0,0,1,0,0Z" transform="translate(28.319 79.108) rotate(45)" fill="#f0f0f0"/>
          <path id="Rectangle_4223" data-name="Rectangle 4223" d="M0,0H14.462a0,0,0,0,1,0,0V1.194a5.37,5.37,0,0,1-5.37,5.37H5.37A5.37,5.37,0,0,1,0,1.194V0A0,0,0,0,1,0,0Z" transform="translate(28.319 79.108) rotate(45)" fill="#e0e0e0"/>
          <path id="Path_32235" data-name="Path 32235" d="M286.776,269.7l-23.948,23.95A15.027,15.027,0,0,0,284.08,314.9l9.687-9.687A51.505,51.505,0,0,0,286.776,269.7Z" transform="translate(-178.268 -246.049)" fill="#f0f0f0"/>
          <path id="Path_32236" data-name="Path 32236" d="M301.2,294.828a50.24,50.24,0,1,0-46.629,53.608A50.238,50.238,0,0,0,301.2,294.828Zm-96.141,6.695a46.134,46.134,0,1,1,49.227,42.818A46.136,46.136,0,0,1,205.055,301.522Z" transform="translate(-183.667 -248.075)" fill="#e0e0e0"/>
          <path id="Path_32237" data-name="Path 32237" d="M224.518,323.352a38.891,38.891,0,0,1-13.327-26.708,1.681,1.681,0,1,1,3.354-.233A35.69,35.69,0,0,0,252.583,329.5a1.681,1.681,0,1,1,.234,3.353A38.886,38.886,0,0,1,224.518,323.352Z" transform="translate(-182.697 -243.692)" fill="#e0e0e0"/>
          <path id="Path_32238" data-name="Path 32238" d="M280.286,288.214a1.662,1.662,0,0,1-.515-.818,35.792,35.792,0,0,0-17.8-21.988,1.681,1.681,0,1,1,1.562-2.977A39.165,39.165,0,0,1,283.01,286.5a1.681,1.681,0,0,1-2.723,1.718Z" transform="translate(-178.022 -246.748)" fill="#e0e0e0"/>
          <path id="Path_32239" data-name="Path 32239" d="M243.441,261.387a1.682,1.682,0,0,1,.987-2.946,38.926,38.926,0,0,1,12.683,1.193,1.681,1.681,0,0,1-.859,3.25,35.554,35.554,0,0,0-11.59-1.089A1.677,1.677,0,0,1,243.441,261.387Z" transform="translate(-179.728 -247.113)" fill="#e0e0e0"/>
        </g>
      </g>
    </g>
    <g id="Shadow" transform="translate(48.555 355.399)">
      <ellipse id="_Path_" data-name="&lt;Path&gt;" cx="236.779" cy="11.799" rx="236.779" ry="11.799" transform="translate(-75 20)" fill="#f5f5f5"/>
    </g>
    <g id="Character_1" data-name="Character 1" transform="translate(-18.578 122.958)">
      <g id="Group_17580" data-name="Group 17580">
        <path id="Path_32240" data-name="Path 32240" d="M137.363,144.593c-6.975,7.012,4.883,17.91-2.952,22.907,6.39,3.214,28.806,7.289,34.58-5.332-4.231-3.288-1.293-11.377-5.2-19.133C157.994,131.522,130.387,136.618,137.363,144.593Z" transform="translate(-77.523 -136.301)" fill="#263238"/>
        <path id="Path_32241" data-name="Path 32241" d="M137.614,145.666c-2.175-.365-9.508,3.29-4.053,13.1,4.407,7.92.737,8.487.737,8.487s4.353.122,1.756-5.771C133.28,155.185,131.985,148.657,137.614,145.666Z" transform="translate(-77.142 -137.559)" fill="#263238"/>
        <path id="Path_32242" data-name="Path 32242" d="M193.323,213.366a2.112,2.112,0,0,0-2.85-.892l-.514.269c-.162.084-.475.293-.728.434-.264.161-.537.312-.815.453a13.637,13.637,0,0,1-1.691.716,10.648,10.648,0,0,1-3.328.626,9.009,9.009,0,0,1-3.072-.494,11.171,11.171,0,0,1-1.814-.845c-.742-1.646-1.449-3.306-2.059-5.017-.736-2-1.381-4.047-1.95-6.114s-1.073-4.157-1.49-6.26q-.324-1.574-.581-3.153l-.231-1.567c-.079-.5-.148-1.068-.195-1.467l-.02-.171a4.325,4.325,0,0,0-8.607.853c.058.731.115,1.294.19,1.914s.168,1.2.255,1.8q.286,1.783.643,3.542a68.625,68.625,0,0,0,1.817,6.94c.344,1.145.759,2.272,1.149,3.4.447,1.116.854,2.242,1.351,3.34A64.108,64.108,0,0,0,172,218.153l.106.193a3.356,3.356,0,0,0,1.341,1.334,17.549,17.549,0,0,0,5.237,1.854,14.66,14.66,0,0,0,5.672-.124,15.051,15.051,0,0,0,4.978-2.163,16.236,16.236,0,0,0,2.027-1.634c.313-.293.615-.6.906-.917.3-.34.53-.626.872-1.077A2.117,2.117,0,0,0,193.323,213.366Z" transform="translate(-81.422 -143.002)" fill="#ff8b7b"/>
        <path id="Path_32243" data-name="Path 32243" d="M203.277,208.252l-.249-.005a5.384,5.384,0,0,0-4.34,2.027l-4.179,5.244-.035,3.583c3.354,1.333,7.615-2.263,7.615-2.263l2.154-.538a3.015,3.015,0,0,0,2.252-3.357l-.3-2.108A3.017,3.017,0,0,0,203.277,208.252Z" transform="translate(-85.611 -145.989)" fill="#ff8b7b"/>
        <g id="Group_17569" data-name="Group 17569" transform="translate(79.449 40.399)">
          <g id="Group_17567" data-name="Group 17567">
            <path id="Path_32244" data-name="Path 32244" d="M171.511,184.624c2.8,2.871,2.973,11.45,2.973,11.45l-11.187,9s-4.587-12.713-2.049-17.205C163.4,184.05,167.951,180.967,171.511,184.624Z" transform="translate(-160.483 -182.987)" fill="#2176ff"/>
          </g>
          <g id="Group_17568" data-name="Group 17568" opacity="0.2">
            <path id="Path_32245" data-name="Path 32245" d="M171.511,184.624c2.8,2.871,2.973,11.45,2.973,11.45l-11.187,9s-4.587-12.713-2.049-17.205C163.4,184.05,167.951,180.967,171.511,184.624Z" transform="translate(-160.483 -182.987)" fill="#fff"/>
          </g>
        </g>
        <g id="Group_17571" data-name="Group 17571" transform="translate(0 80.994)">
          <path id="Path_32246" data-name="Path 32246" d="M151.852,405.052l6.175.682.847-16.79-6.175-.682Z" transform="translate(-79.872 -251.225)" fill="#ff8b7b"/>
          <path id="Path_32247" data-name="Path 32247" d="M158.866,403.786H151.6a.558.558,0,0,0-.577.527l-.484,6.867a1.364,1.364,0,0,0,1.34,1.374c3.064.028,3.094.014,6.911.014h10.3c3.172,0,3.18-3.206,1.809-3.5-6.151-1.3-8.548-3.1-10.714-4.81A2.159,2.159,0,0,0,158.866,403.786Z" transform="translate(-79.695 -253.316)" fill="#263238"/>
          <path id="Path_32248" data-name="Path 32248" d="M158.93,388.949l-.435,8.655-6.212.008.47-9.345Z" transform="translate(-79.93 -251.226)" opacity="0.2"/>
          <path id="Path_32249" data-name="Path 32249" d="M160.461,233.836S165.8,278.6,165.8,298.505c-4.212,27.691-7.776,76.286-7.776,76.286l-8.554-.22s-3.885-52.93-.281-75.778c-4.616-20.479-10.31-67.725-10.31-67.725Z" transform="translate(-78.125 -230.057)" fill="#263238"/>
          <path id="Path_32250" data-name="Path 32250" d="M144.313,248.67a25.541,25.541,0,0,0-2.959,1.54c1.177,8.835,2.726,19.955,4.37,30.217C148.528,271.982,147.013,253.412,144.313,248.67Z" transform="translate(-78.458 -232.427)" opacity="0.2"/>
          <g id="Group_17570" data-name="Group 17570">
            <path id="Path_32251" data-name="Path 32251" d="M74.533,387.426l5.093,3.558,8.79-14.331L83.323,373.1Z" transform="translate(-69.459 -249.183)" fill="#ff8b7b"/>
            <path id="Path_32252" data-name="Path 32252" d="M80.128,390.656l-4.341-5.821a.559.559,0,0,0-.768-.148L69.225,388.4a1.363,1.363,0,0,0-.3,1.9c1.81,2.473,1.838,2.489,4.12,5.549l6.16,8.26c1.9,2.543,4.471.633,3.884-.64-2.632-5.709-2.626-8.7-2.548-11.465A2.157,2.157,0,0,0,80.128,390.656Z" transform="translate(-68.67 -250.731)" fill="#263238"/>
            <path id="Path_32253" data-name="Path 32253" d="M89.019,376.657l-4.53,7.387-5.456-2.97,4.891-7.976Z" transform="translate(-70.065 -249.183)" opacity="0.2"/>
            <path id="Path_32254" data-name="Path 32254" d="M108.517,381.282c-4.424,0-13.631,0-13.786-6.509-.122-5.107,6.2-7.224,11.644-7.483a4.594,4.594,0,0,1,4.818,4.379c.005.116.007.231,0,.345,6.177-.293,10.176-1.643,11.637-3.947,3.3-5.2-3.015-18.6-9.121-31.555-7.178-15.234-15.313-32.5-15.473-49.034a4.6,4.6,0,0,1,4.56-4.649h.044a4.605,4.605,0,0,1,4.6,4.559c.139,14.519,7.819,30.819,14.595,45.2,7.821,16.6,14.577,30.937,8.566,40.411C127.074,378.573,119.848,381.282,108.517,381.282Z" transform="translate(-72.179 -237.027)" fill="#2176ff"/>
            <path id="Path_32255" data-name="Path 32255" d="M145.558,232.8s-14.761,51.157-21.973,69.706C109.624,326.79,86.45,363.958,86.45,363.958l-7.4-4.293S96.359,316.746,108,296.756c3.12-20.76,14.934-66.857,14.934-66.857Z" transform="translate(-70.067 -229.899)" fill="#263238"/>
            <path id="Path_32256" data-name="Path 32256" d="M83.253,396.049a2.506,2.506,0,0,0,1.288,1.051.88.88,0,0,0,.83-.282.641.641,0,0,0,.19-.534c-.11-1.038-2.787-2.384-3.323-2.644a.143.143,0,0,0-.179.055.227.227,0,0,0-.021.222A12.422,12.422,0,0,0,83.253,396.049Zm1.844-.032a.7.7,0,0,1,.153.33.2.2,0,0,1-.072.178.6.6,0,0,1-.574.2c-.566-.115-1.318-1.038-2.052-2.5A9.065,9.065,0,0,1,85.1,396.017Z" transform="translate(-70.467 -251.948)" fill="#2176ff"/>
            <path id="Path_32257" data-name="Path 32257" d="M82.058,393.805a.162.162,0,0,0,.048.042c.858.48,3.115.858,3.6.145a.727.727,0,0,0-.044-.824c-.893-1.54-3.457.262-3.566.34a.213.213,0,0,0-.082.175A.218.218,0,0,0,82.058,393.805Zm3.286-.507a1.045,1.045,0,0,1,.066.1c.093.162.116.281.065.355-.284.414-1.95.273-2.92-.11C83.205,393.248,84.723,392.466,85.344,393.3Z" transform="translate(-70.467 -251.802)" fill="#2176ff"/>
          </g>
          <path id="Path_32258" data-name="Path 32258" d="M164.543,405.156a2.5,2.5,0,0,0,1.612-.4.879.879,0,0,0,.27-.833.642.642,0,0,0-.314-.472c-.9-.532-3.577.81-4.106,1.084a.141.141,0,0,0-.062.176.225.225,0,0,0,.165.15A12.461,12.461,0,0,0,164.543,405.156Zm1.076-1.5a.7.7,0,0,1,.356.074.2.2,0,0,1,.1.165.6.6,0,0,1-.185.577c-.43.385-1.619.435-3.232.149A9.059,9.059,0,0,1,165.619,403.659Z" transform="translate(-81.229 -253.253)" fill="#2176ff"/>
          <path id="Path_32259" data-name="Path 32259" d="M162.146,404.587a.159.159,0,0,0,.063-.013c.9-.4,2.549-1.984,2.271-2.8a.726.726,0,0,0-.686-.458c-1.769-.205-1.857,2.928-1.86,3.062a.213.213,0,0,0,.092.17A.207.207,0,0,0,162.146,404.587Zm1.558-2.937a1.11,1.11,0,0,1,.118.007c.187.022.3.076.324.16.161.475-.948,1.726-1.835,2.275C162.386,403.335,162.665,401.65,163.7,401.65Z" transform="translate(-81.229 -252.981)" fill="#2176ff"/>
        </g>
        <g id="Group_17574" data-name="Group 17574" transform="translate(52.864 36.054)">
          <g id="Group_17572" data-name="Group 17572">
            <path id="Path_32260" data-name="Path 32260" d="M129.761,222.905c5.69.729,17.779,2.276,29.471,3.776,6.652-22.38,8.833-33.185,9.428-38.393a5.669,5.669,0,0,0-3.915-6.063c-1.762-.555-3.958-1.21-6.175-1.776-.758-.2-1.524-.379-2.278-.546a94.568,94.568,0,0,0-13.382-1.722c-.665-.056-1.326-.093-1.987-.129-1.306-.062-2.582-.087-3.773-.087a6.359,6.359,0,0,0-6.339,6.92c.228,2.615.412,5.009.55,7.223.331,5.176.431,9.349.356,12.987A112.14,112.14,0,0,1,129.761,222.905Z" transform="translate(-129.761 -177.966)" fill="#2176ff"/>
          </g>
          <g id="Group_17573" data-name="Group 17573" opacity="0.3">
            <path id="Path_32261" data-name="Path 32261" d="M129.761,222.905c5.69.729,17.779,2.276,29.471,3.776,6.652-22.38,8.833-33.185,9.428-38.393a5.669,5.669,0,0,0-3.915-6.063c-1.762-.555-3.958-1.21-6.175-1.776-.758-.2-1.524-.379-2.278-.546a94.568,94.568,0,0,0-13.382-1.722c-.665-.056-1.326-.093-1.987-.129-1.306-.062-2.582-.087-3.773-.087a6.359,6.359,0,0,0-6.339,6.92c.228,2.615.412,5.009.55,7.223.331,5.176.431,9.349.356,12.987A112.14,112.14,0,0,1,129.761,222.905Z" transform="translate(-129.761 -177.966)" fill="#fff"/>
          </g>
        </g>
        <path id="Path_32262" data-name="Path 32262" d="M131.967,207.143c3.9-5.035,5.3-10.8,4.04-13.976l-4.4.989C131.942,199.333,132.042,203.505,131.967,207.143Z" transform="translate(-77.146 -143.959)" fill="#2176ff" opacity="0.3"/>
        <path id="Path_32263" data-name="Path 32263" d="M160.129,180.459c-.761-.2-1.523-.381-2.276-.554a95.75,95.75,0,0,0-13.387-1.722c-.666-.052-1.324-.087-1.982-.121l-1.151-.052.909,1.514c.121.208,3.063,5.019,10.419,10.194l1.566,1.09,1.506-1.151a11.373,11.373,0,0,0,4.742-9.112C160.363,180.519,160.242,180.485,160.129,180.459Z" transform="translate(-78.455 -141.917)" fill="#fff"/>
        <path id="Path_32264" data-name="Path 32264" d="M148.2,167.575c-.275,3.642-1.134,7.354-3.248,8.909,0,0,2.7,4.49,9.693,9.4a8.559,8.559,0,0,0,3.691-7.686c-4.655-1.763-4.339-4.959-2.361-10.105l-3.634-1.957A2.382,2.382,0,0,0,148.2,167.575Z" transform="translate(-78.942 -140.213)" fill="#ff8b7b"/>
        <path id="Path_32265" data-name="Path 32265" d="M152.85,166.136a2.378,2.378,0,0,0-4.088,1.108,14.683,14.683,0,0,0,6.356,6.5,15.777,15.777,0,0,1,1.365-5.654Z" transform="translate(-79.455 -140.213)" opacity="0.2"/>
        <path id="Path_32266" data-name="Path 32266" d="M142.121,152.778c1.807,7.033,2.421,10.048,6.718,13.01,6.464,4.455,14.707.7,15.04-6.732.3-6.689-2.705-17.067-10.217-18.559A9.9,9.9,0,0,0,142.121,152.778Z" transform="translate(-78.517 -136.838)" fill="#ff8b7b"/>
        <path id="Path_32267" data-name="Path 32267" d="M159.656,141.744a37.957,37.957,0,0,1-14.68,8.113s5.368,11.429-4.687,8.545c-2.915-9.735.041-14.783,2.565-17.163C150.858,138.643,156.483,137.778,159.656,141.744Z" transform="translate(-78.152 -136.668)" fill="#263238"/>
        <path id="Path_32268" data-name="Path 32268" d="M141.74,162.183a5.309,5.309,0,0,0,2.978,2.749c1.751.629,2.761-.9,2.387-2.627-.336-1.551-1.653-3.748-3.464-3.635A2.384,2.384,0,0,0,141.74,162.183Z" transform="translate(-78.476 -139.312)" fill="#ff8b7b"/>
        <path id="Path_32269" data-name="Path 32269" d="M129.242,227.81l-1.668,2.468c-.129.191.087.431.427.474l30.909,3.964c.266.034.5-.068.541-.233l.6-2.6c.042-.18-.169-.364-.459-.4L129.75,227.65A.54.54,0,0,0,129.242,227.81Z" transform="translate(-76.597 -148.601)" fill="#2176ff"/>
        <path id="Path_32270" data-name="Path 32270" d="M133.482,231.688l-.8-.1c-.159-.021-.27-.118-.246-.217l.814-3.379c.023-.1.173-.164.332-.143l.8.1c.159.021.27.119.246.217l-.814,3.38C133.791,231.644,133.641,231.708,133.482,231.688Z" transform="translate(-77.257 -148.628)" fill="#263238"/>
        <path id="Path_32271" data-name="Path 32271" d="M160.991,235.216l-.8-.1c-.159-.021-.27-.119-.247-.217l.814-3.38c.024-.1.174-.163.333-.143l.8.1c.159.021.27.118.246.217l-.814,3.379C161.3,235.171,161.15,235.236,160.991,235.216Z" transform="translate(-80.961 -149.103)" fill="#263238"/>
        <path id="Path_32272" data-name="Path 32272" d="M147.237,233.452l-.8-.1c-.159-.021-.27-.119-.247-.217l.815-3.379c.023-.1.173-.164.332-.143l.8.1c.159.021.27.119.246.217l-.814,3.379C147.546,233.408,147.4,233.472,147.237,233.452Z" transform="translate(-79.109 -148.866)" fill="#263238"/>
        <path id="Path_32273" data-name="Path 32273" d="M156.09,154.188c.112.58.509.99.888.917s.6-.6.484-1.181-.509-.99-.888-.917S155.979,153.608,156.09,154.188Z" transform="translate(-80.438 -138.549)" fill="#263238"/>
        <path id="Path_32274" data-name="Path 32274" d="M163.66,152.732c.111.58.509.99.888.917s.6-.6.484-1.181-.509-.99-.888-.917S163.549,152.152,163.66,152.732Z" transform="translate(-81.458 -138.353)" fill="#263238"/>
        <path id="Path_32275" data-name="Path 32275" d="M164.038,151.522l1.314-.669S164.848,152.077,164.038,151.522Z" transform="translate(-81.513 -138.26)" fill="#263238"/>
        <path id="Path_32276" data-name="Path 32276" d="M161.664,154.42a15.771,15.771,0,0,0,2.778,3.3,2.539,2.539,0,0,1-1.991.785Z" transform="translate(-81.193 -138.741)" fill="#ff5652"/>
        <path id="Path_32277" data-name="Path 32277" d="M156.93,161.75a.174.174,0,0,0-.025.19.172.172,0,0,0,.231.08,4.688,4.688,0,0,1,4.227-.015.176.176,0,0,0,.238-.059.174.174,0,0,0-.059-.238,4.944,4.944,0,0,0-4.557,0A.19.19,0,0,0,156.93,161.75Z" transform="translate(-80.55 -139.648)" fill="#263238"/>
        <path id="Path_32278" data-name="Path 32278" d="M153.408,151.939a.344.344,0,0,0,.118-.135,2.762,2.762,0,0,1,1.962-1.556.346.346,0,1,0-.083-.688,3.439,3.439,0,0,0-2.5,1.937.347.347,0,0,0,.5.441Z" transform="translate(-80.008 -138.086)" fill="#263238"/>
        <path id="Path_32279" data-name="Path 32279" d="M165.384,147.06a.348.348,0,0,0-.048-.532,3.443,3.443,0,0,0-3.129-.468.347.347,0,0,0,.263.642,2.747,2.747,0,0,1,2.473.4A.347.347,0,0,0,165.384,147.06Z" transform="translate(-81.237 -137.59)" fill="#263238"/>
        <path id="Path_32280" data-name="Path 32280" d="M156.468,152.978l1.315-.669S157.278,153.533,156.468,152.978Z" transform="translate(-80.493 -138.456)" fill="#263238"/>
        <path id="Path_32281" data-name="Path 32281" d="M103.389,285.071a4.6,4.6,0,0,1-4.6-4.559c-.119-12.293,3.976-22.667,11.84-30,9.681-9.031,24.787-13.227,42.542-11.825,12.452.988,20.437-2.049,29.682-5.564,1.52-.577,3.055-1.161,4.63-1.735a4.6,4.6,0,1,1,3.151,8.652c-1.533.557-3.028,1.128-4.508,1.689-9.42,3.583-19.159,7.282-33.681,6.138-15.149-1.2-27.766,2.13-35.536,9.378-6.008,5.6-9.007,13.4-8.912,23.181a4.605,4.605,0,0,1-4.559,4.649Z" transform="translate(-72.725 -149.067)" fill="#2176ff"/>
        <g id="Group_17576" data-name="Group 17576" transform="translate(100.874 56.511)">
          <g id="Group_17575" data-name="Group 17575" transform="translate(0 8.431)">
            <path id="Rectangle_4224" data-name="Rectangle 4224" d="M0,0H18.77a7.167,7.167,0,0,1,7.167,7.167v20.3a7.167,7.167,0,0,1-7.167,7.167H0a0,0,0,0,1,0,0V0A0,0,0,0,1,0,0Z" transform="matrix(-0.939, 0.344, -0.344, -0.939, 36.266, 32.52)" fill="#2176ff"/>
            <path id="Rectangle_4225" data-name="Rectangle 4225" d="M0,0H18.77a7.167,7.167,0,0,1,7.167,7.167v20.3a7.167,7.167,0,0,1-7.167,7.167H0a0,0,0,0,1,0,0V0A0,0,0,0,1,0,0Z" transform="matrix(-0.939, 0.344, -0.344, -0.939, 36.266, 32.52)" fill="#fff" opacity="0.7"/>
          </g>
          <path id="Path_32282" data-name="Path 32282" d="M203.832,214.373l8.265-3.028,11.913,32.524-8.265,3.028a4.969,4.969,0,0,1-1.236-1.9l-10.394-28.374A4.965,4.965,0,0,1,203.832,214.373Z" transform="translate(-187.742 -202.917)" fill="#2176ff" opacity="0.2"/>
          <rect id="Rectangle_4226" data-name="Rectangle 4226" width="0.866" height="5.76" transform="translate(42.097 16.851) rotate(-20.116)" fill="#2176ff"/>
          <path id="Path_32283" data-name="Path 32283" d="M229.73,215.064l-2.923-7.98a7.062,7.062,0,0,0-6.614-4.612,6.958,6.958,0,0,0-2.406.428l-5.265,1.929-.3-.813,5.265-1.93a7.846,7.846,0,0,1,2.7-.48,7.933,7.933,0,0,1,7.427,5.181l2.923,7.98Z" transform="translate(-188.876 -201.606)" fill="#2176ff"/>
          <rect id="Rectangle_4227" data-name="Rectangle 4227" width="17.944" height="40.575" rx="5.625" transform="translate(48.181 39.751) rotate(159.883)" fill="#2176ff"/>
          <path id="Path_32284" data-name="Path 32284" d="M221.422,217.6a2.6,2.6,0,1,1-3.331-1.546A2.6,2.6,0,0,1,221.422,217.6Z" transform="translate(-189.437 -203.531)" fill="#263238"/>
          <path id="Path_32285" data-name="Path 32285" d="M228.89,237.992a2.6,2.6,0,1,1-3.331-1.545A2.595,2.595,0,0,1,228.89,237.992Z" transform="translate(-190.442 -206.276)" fill="#263238"/>
        </g>
        <path id="Path_32286" data-name="Path 32286" d="M138.83,228.631l-.074-.074c-1.353-1.35-2.78-2.821-4.064-4.312-1.311-1.485-2.556-3.008-3.7-4.567a42.6,42.6,0,0,1-3.079-4.769,25.149,25.149,0,0,1-1.663-3.7c.517-1.723,1.067-3.435,1.725-5.123.755-1.995,1.608-3.962,2.531-5.9s1.912-3.844,2.973-5.707q.787-1.4,1.627-2.762l.852-1.336c.27-.432.588-.9.813-1.236l.1-.143a4.325,4.325,0,0,0-7.063-4.992c-.434.591-.761,1.053-1.111,1.571s-.66,1.018-.986,1.527q-.951,1.536-1.834,3.1a68.651,68.651,0,0,0-3.171,6.434c-.491,1.09-.915,2.214-1.361,3.325-.394,1.135-.823,2.253-1.166,3.409a64.094,64.094,0,0,0-1.815,7l-.044.206a3.449,3.449,0,0,0,.138,1.9,28.13,28.13,0,0,0,3.31,6.262,41.326,41.326,0,0,0,4.276,5.163,53.079,53.079,0,0,0,4.838,4.373A50.911,50.911,0,0,0,136.209,232a2.153,2.153,0,0,0,2.621-3.374Z" transform="translate(-75.345 -142.489)" fill="#ff8b7b"/>
        <path id="Path_32287" data-name="Path 32287" d="M151.492,240.117l-.109-.225a5.383,5.383,0,0,0-3.783-2.94l-6.571-1.329-3.206,1.6c.343,3.593,5.484,5.747,5.484,5.747l1.461,1.672a3.016,3.016,0,0,0,4.015.475l1.738-1.232A3.017,3.017,0,0,0,151.492,240.117Z" transform="translate(-77.982 -149.676)" fill="#ff8b7b"/>
        <g id="Group_17579" data-name="Group 17579" transform="translate(50.04 36.103)">
          <g id="Group_17577" data-name="Group 17577">
            <path id="Path_32288" data-name="Path 32288" d="M134.021,178.566c-3.641,1.672-7.524,7.446-7.524,7.446l7.822,14.585s8.859-10.207,8.11-15.312C141.793,180.952,138.66,176.438,134.021,178.566Z" transform="translate(-126.497 -178.023)" fill="#2176ff"/>
          </g>
          <g id="Group_17578" data-name="Group 17578" opacity="0.3">
            <path id="Path_32289" data-name="Path 32289" d="M134.021,178.566c-3.641,1.672-7.524,7.446-7.524,7.446l7.822,14.585s8.859-10.207,8.11-15.312C141.793,180.952,138.66,176.438,134.021,178.566Z" transform="translate(-126.497 -178.023)" fill="#fff"/>
          </g>
        </g>
      </g>
    </g>
    <g id="Character_2" data-name="Character 2" transform="translate(342.488 104.765)">
      <g id="Group_17590" data-name="Group 17590">
        <path id="Path_32290" data-name="Path 32290" d="M411.1,366.1c-7.625,0-15.12-1.571-18.75-6.31-17.209-22.47-17.052-67.757-16.9-111.554.08-23.575,1.944-45.842-.673-63.142-1.544-10.2-6.89-17.2-12.362-20.821-8.061-5.326-19.144-2.465-23.877-1.243a4.6,4.6,0,0,1-2.3-8.916c5.918-1.529,19.78-5.106,31.256,2.477,7.739,5.114,14.437,14.239,16.388,27.125,2.726,18,.86,40.612.778,64.551-.145,42.253-.3,85.945,15,105.924,1.234,1.611,6.07,3.053,14.061,2.642.707-.035,1.4-.085,2.083-.144a4.6,4.6,0,0,1,4.141-6.617c10.06,0,15.356.846,16.379,5.468.293,1.324.449,4.647-4.417,6.912C428.28,364.146,419.611,366.1,411.1,366.1Z" transform="translate(-281.303 -120.212)" fill="#2176ff"/>
        <g id="Group_17587" data-name="Group 17587" transform="translate(6.907)">
          <g id="Group_17582" data-name="Group 17582" transform="translate(0 107.587)">
            <path id="Path_32291" data-name="Path 32291" d="M305.409,400.909l-9.391-3.69,4.954-16.279,9.391,3.69Z" transform="translate(-283.259 -258.639)" fill="#ffc3bd"/>
            <path id="Path_32292" data-name="Path 32292" d="M293.812,398.579l10.577,4.156a.639.639,0,0,1,.4.694l-1.034,6.589a1.077,1.077,0,0,1-1.475.82c-2.656-1.1-6.811-2.91-10.18-4.234-2.072-.814-6.01-2.112-8.871-3.237-2.8-1.1-2.123-4.1-.851-3.9,5.7.915,7.889-.056,10.164-.907A1.78,1.78,0,0,1,293.812,398.579Z" transform="translate(-281.274 -260.997)" fill="#263238"/>
            <g id="Group_17581" data-name="Group 17581" transform="translate(15.161 122.305)">
              <path id="Path_32293" data-name="Path 32293" d="M310.738,384.636l-9.395-3.692-2.549,8.393,9.395,3.692Z" transform="translate(-298.794 -380.944)" opacity="0.2"/>
            </g>
            <path id="Path_32294" data-name="Path 32294" d="M322.273,239.606s-8.494,42.006-11.747,62.719c-3.647,23.219-13.3,65.627-13.3,65.627l12.487,4.906s17.833-43.418,20.319-64.45c7.482-17.083,22.369-67.382,22.369-67.382Z" transform="translate(-283.422 -239.606)" fill="#2176ff"/>
            <path id="Path_32295" data-name="Path 32295" d="M296.534,387.217l13.7,5.385,2.343-4.15L297.257,382.1Z" transform="translate(-283.329 -258.795)" fill="#263238"/>
            <path id="Path_32296" data-name="Path 32296" d="M292.452,398.464a2.215,2.215,0,0,1-1.177-.864,1.046,1.046,0,0,1,0-.985.551.551,0,0,1,.456-.347c.91-.092,2.574,2.124,2.762,2.376a.174.174,0,0,1-.164.276A8.639,8.639,0,0,1,292.452,398.464Zm-.459-1.809a.508.508,0,0,0-.226-.042c-.052.005-.119.027-.177.15a.707.707,0,0,0-.01.672,3.527,3.527,0,0,0,2.372,1.074A7.032,7.032,0,0,0,291.993,396.654Z" transform="translate(-282.604 -260.703)" fill="#2176ff"/>
            <path id="Path_32297" data-name="Path 32297" d="M294.61,398.746a.176.176,0,0,1-.069-.049c-.555-.66-1.333-2.69-.89-3.394a.568.568,0,0,1,.681-.222.953.953,0,0,1,.606.479c.537.959-.072,2.99-.1,3.075a.17.17,0,0,1-.131.119A.174.174,0,0,1,294.61,398.746Zm-.29-3.3a.546.546,0,0,0-.075-.024c-.22-.057-.276.032-.3.07-.262.415.164,1.886.656,2.694a4.171,4.171,0,0,0,.034-2.452A.609.609,0,0,0,294.321,395.442Z" transform="translate(-282.923 -260.539)" fill="#2176ff"/>
          </g>
          <path id="Path_32298" data-name="Path 32298" d="M346.32,269.029c-4.706,5.838-6.565,20.7-6.547,33.091,3.177-8.748,6.814-19.86,10.018-29.952Z" transform="translate(-289.152 -135.981)" opacity="0.2"/>
          <g id="Group_17584" data-name="Group 17584" transform="translate(51.07 108.122)">
            <path id="Path_32299" data-name="Path 32299" d="M370.389,403.189H360.3l-1.343-16.963h10.09Z" transform="translate(-342.805 -259.885)" fill="#ffc3bd"/>
            <path id="Path_32300" data-name="Path 32300" d="M358.141,404.849h11.364a.639.639,0,0,1,.624.5l1.447,6.511a1.078,1.078,0,0,1-1.072,1.3c-2.874-.05-7.4-.218-11.023-.218-2.227,0-6.365.231-9.44.231-3.007,0-3.476-3.04-2.218-3.315,5.644-1.235,7.322-2.938,9.129-4.562A1.778,1.778,0,0,1,358.141,404.849Z" transform="translate(-341.217 -262.393)" fill="#263238"/>
            <g id="Group_17583" data-name="Group 17583" transform="translate(16.15 126.345)">
              <path id="Path_32301" data-name="Path 32301" d="M369.048,386.231H358.954l.7,8.744h10.094Z" transform="translate(-358.954 -386.231)" opacity="0.2"/>
            </g>
            <path id="Path_32302" data-name="Path 32302" d="M340.291,240.224s5.591,46.8,6.766,63.652c1.636,23.446,7.959,69.743,7.959,69.743h13.416s1.439-47.282-.991-68.321c3.343-18.348,2.285-63.67,2.285-63.67Z" transform="translate(-340.291 -240.224)" fill="#2176ff"/>
            <path id="Path_32303" data-name="Path 32303" d="M356.508,393.932h14.723l.663-4.72-16.585-.307Z" transform="translate(-342.313 -260.246)" fill="#263238"/>
            <path id="Path_32304" data-name="Path 32304" d="M356.754,405.89a2.22,2.22,0,0,1-1.411-.374,1.046,1.046,0,0,1-.359-.917.551.551,0,0,1,.3-.49c.813-.419,3.173,1.036,3.44,1.2a.173.173,0,0,1-.051.316A8.674,8.674,0,0,1,356.754,405.89Zm-1.089-1.517a.489.489,0,0,0-.225.044c-.047.024-.1.068-.109.2a.706.706,0,0,0,.235.63,3.528,3.528,0,0,0,2.6.132A7.009,7.009,0,0,0,355.666,404.373Z" transform="translate(-342.269 -262.284)" fill="#2176ff"/>
            <path id="Path_32305" data-name="Path 32305" d="M358.861,405.364a.176.176,0,0,1-.083-.021c-.758-.412-2.224-2.017-2.069-2.833a.567.567,0,0,1,.552-.455.954.954,0,0,1,.74.223c.851.7,1.025,2.81,1.032,2.9a.173.173,0,0,1-.078.159A.169.169,0,0,1,358.861,405.364Zm-1.479-2.969a.605.605,0,0,0-.079,0c-.225.028-.245.132-.254.176-.092.482.842,1.7,1.6,2.267a4.18,4.18,0,0,0-.865-2.295A.615.615,0,0,0,357.382,402.395Z" transform="translate(-342.5 -262.016)" fill="#2176ff"/>
          </g>
          <g id="Group_17585" data-name="Group 17585" transform="translate(13.984 31.354)">
            <path id="Path_32306" data-name="Path 32306" d="M339.149,163.727h-.035l-8.086-.1c-2.711-.018-5.414-.079-8.084-.125-.813-.016-1.611-.054-2.414-.084.045-.048.086-.1.13-.144.569-.6,1.138-1.228,1.73-1.823.29-.308.583-.613.878-.908.274-.3.613-.625.8-.863l.737-.929a4.476,4.476,0,0,0-4.692-7.079l-1.6.433c-.5.151-.99.309-1.479.472-.967.343-1.926.71-2.868,1.121a42.326,42.326,0,0,0-5.495,2.926,39.3,39.3,0,0,0-5.148,3.915,33.7,33.7,0,0,0-4.592,5.117,7.93,7.93,0,0,0-.861,1.486,7.58,7.58,0,0,0,3.915,9.981l.786.344a33.989,33.989,0,0,0,5.5,1.824c1.642.421,3.2.694,4.73.953s3.033.47,4.518.655q2.23.249,4.43.438c2.933.265,5.84.389,8.738.479,2.918.067,5.742.084,8.749-.051a9.02,9.02,0,0,0-.289-18.029Z" transform="translate(-297.434 -151.509)" fill="#ffc3bd"/>
            <path id="Path_32307" data-name="Path 32307" d="M347.378,181.249c-6.98,7.967-23.785,4.988-23.785,4.988l.921-19.837a87.342,87.342,0,0,1,17.538-2.026C351.911,164.352,352.969,174.868,347.378,181.249Z" transform="translate(-300.957 -153.242)" fill="#263238"/>
          </g>
          <path id="Path_32308" data-name="Path 32308" d="M328.807,175.159c-.42,3.2-.826,7.508-1.133,13.308-3.644,18.425-5.006,31.485-1.785,41.01,2.542,3.141,35.7,2.535,41.659,1.935,3.44-8.568,3.822-33.16,4.225-53.831a11.919,11.919,0,0,0-9.9-11.963,80.286,80.286,0,0,0-22.607-.762A11.9,11.9,0,0,0,328.807,175.159Z" transform="translate(-287.038 -121.889)" fill="#263238"/>
          <path id="Path_32309" data-name="Path 32309" d="M366.714,191.366c.111,6.307,4.677,16.37,9.815,21.472.313-5.322.516-11.094.672-16.914Z" transform="translate(-292.78 -125.523)" opacity="0.2"/>
          <g id="Group_17586" data-name="Group 17586" transform="translate(51.516)">
            <path id="Path_32310" data-name="Path 32310" d="M394.451,200.493l-.292-.7a65.632,65.632,0,0,0-4.235-8.361c-1.541-2.6-3.2-5.046-4.926-7.412s-3.544-4.617-5.414-6.819c-.948-1.09-1.89-2.181-2.887-3.231l-1.5-1.578-1.62-1.606a9.012,9.012,0,0,0-13.045,12.428l.256.285,5.086,5.653c1.716,1.923,3.379,3.882,5.021,5.825.8.98,1.619,1.957,2.37,2.949.8.975,1.53,1.961,2.274,2.946,1.07,1.5,2.106,2.98,3.031,4.443a21.619,21.619,0,0,1-.53,2.192,64.84,64.84,0,0,1-2.188,6.182c-.839,2.136-1.783,4.3-2.736,6.478s-1.977,4.407-2.885,6.567l-.081.19a4.549,4.549,0,0,0,7.267,5.114,71.653,71.653,0,0,0,5.427-5.606c1.7-1.951,3.319-3.989,4.867-6.149.774-1.078,1.5-2.206,2.231-3.367a40.34,40.34,0,0,0,2.072-3.678,35.034,35.034,0,0,0,1.819-4.26,19.492,19.492,0,0,0,1.105-5.811A6.418,6.418,0,0,0,394.451,200.493Z" transform="translate(-343.152 -122.401)" fill="#ffc3bd"/>
            <path id="Path_32311" data-name="Path 32311" d="M366.878,165.923c11.676,1.992,19.278,17.8,19.278,17.8l-14.069,15.09s-8.112-8.257-12.955-15.9C353.855,174.577,358.515,164.5,366.878,165.923Z" transform="translate(-342.974 -122.078)" fill="#263238"/>
            <path id="Path_32312" data-name="Path 32312" d="M343.385,134.2c-1.949-3.274-2.578-7.808.992-12.379a3.65,3.65,0,0,1-3.569-1.7,21.491,21.491,0,0,1,13.921-4.847c10.478.005,11.261,4.04,10.9,6.8,7.162.457,12.388,19.094-5.775,22.386C349.466,133.486,343.385,134.2,343.385,134.2Z" transform="translate(-340.807 -115.276)" fill="#263238"/>
            <path id="Path_32313" data-name="Path 32313" d="M368.615,122.468s2.921-2.976-.709-6.58a4.882,4.882,0,0,1,3.41,3.393C371.833,121.379,370.418,123.056,368.615,122.468Z" transform="translate(-344.456 -115.358)" fill="#263238"/>
            <path id="Path_32314" data-name="Path 32314" d="M361.488,146.341c-.277,5.734-.791,12.258.169,16.842-1.487,2.341-5.292,5.041-12.121,5.646-2.429-1.377-5.628-4.738-4.514-6.47,2.9-1.861,4.131-7.5,3.3-11.708Z" transform="translate(-341.344 -119.459)" fill="#ffc3bd"/>
            <path id="Path_32315" data-name="Path 32315" d="M358.716,147.591l-9.851,3.227a15.6,15.6,0,0,1,.038,5.439,13.226,13.226,0,0,0,8.551-4.394A5.456,5.456,0,0,0,358.716,147.591Z" transform="translate(-341.892 -119.628)" opacity="0.2"/>
            <path id="Path_32316" data-name="Path 32316" d="M364.02,133.888c-1.826,7.037-2.537,11.248-6.847,14.2-6.482,4.444-14.638-.531-14.951-7.972-.281-6.7,2.752-17.079,10.276-18.554A9.916,9.916,0,0,1,364.02,133.888Z" transform="translate(-340.995 -116.096)" fill="#ffc3bd"/>
            <path id="Path_32317" data-name="Path 32317" d="M365.151,124.2c-3.084,2.2-6.921,11.509.906,15.243C373.013,133.307,371.2,124.2,365.151,124.2Z" transform="translate(-343.586 -116.478)" fill="#263238"/>
            <path id="Path_32318" data-name="Path 32318" d="M364.815,124.522c1.317-6.131-14.14-9.295-19.043-2.142C344.115,126.666,363.877,130.5,364.815,124.522Z" transform="translate(-341.462 -115.68)" fill="#263238"/>
            <path id="Path_32319" data-name="Path 32319" d="M353.638,144.27l0,0a15,15,0,0,0-5.087-1.285.171.171,0,0,0-.183.19.237.237,0,0,0,.228.2,14.6,14.6,0,0,1,4.882,1.232.2.2,0,0,0,.267-.094A.185.185,0,0,0,353.638,144.27Z" transform="translate(-341.824 -119.007)" fill="#263238"/>
            <path id="Path_32320" data-name="Path 32320" d="M368.234,143.9a6.911,6.911,0,0,1-4.81,2.17c-2.423.058-3.04-2.252-1.869-4.227,1.053-1.777,3.583-3.95,5.775-3.066A3.1,3.1,0,0,1,368.234,143.9Z" transform="translate(-343.524 -118.413)" fill="#ffc3bd"/>
            <path id="Path_32321" data-name="Path 32321" d="M354.264,135.518c-.112.581-.511.991-.89.916s-.6-.6-.482-1.184.512-.99.891-.916S354.377,134.938,354.264,135.518Z" transform="translate(-342.43 -117.841)" fill="#263238"/>
            <path id="Path_32322" data-name="Path 32322" d="M346.69,134.041c-.113.58-.512.99-.891.916s-.6-.6-.482-1.184.512-.99.891-.916S346.8,133.461,346.69,134.041Z" transform="translate(-341.41 -117.642)" fill="#263238"/>
            <path id="Path_32323" data-name="Path 32323" d="M348.669,135.03a21.151,21.151,0,0,1-3.737,4.419c.839,1.158,2.776.929,2.776.929Z" transform="translate(-341.363 -117.936)" fill="#ed847e"/>
            <path id="Path_32324" data-name="Path 32324" d="M353.351,131.81a.343.343,0,0,1,.347.106,2.765,2.765,0,0,0,2.3.99.346.346,0,0,1,.393.293.341.341,0,0,1-.293.394,3.441,3.441,0,0,1-2.923-1.218.347.347,0,0,1,.173-.565Z" transform="translate(-342.461 -117.501)" fill="#263238"/>
            <path id="Path_32325" data-name="Path 32325" d="M344.527,129.376a.343.343,0,0,1-.178-.119.348.348,0,0,1,.057-.487,3.433,3.433,0,0,1,3.1-.671.348.348,0,0,1,.217.44.353.353,0,0,1-.438.218h0a2.752,2.752,0,0,0-2.445.558A.349.349,0,0,1,344.527,129.376Z" transform="translate(-341.274 -116.986)" fill="#263238"/>
            <path id="Path_32326" data-name="Path 32326" d="M375.695,235.556l-7.436-.053,3.842,8.531s6.34-1.361,6-4.8Z" transform="translate(-344.504 -131.466)" fill="#ffc3bd"/>
            <path id="Path_32327" data-name="Path 32327" d="M363.843,241.355l1.221,2.4a2.888,2.888,0,0,0,3.644,1.374l2.756-1.1-3.842-8.531-2.953,2.248A2.886,2.886,0,0,0,363.843,241.355Z" transform="translate(-343.867 -131.466)" fill="#ffc3bd"/>
          </g>
        </g>
        <path id="Path_32328" data-name="Path 32328" d="M310.748,218.331a4.6,4.6,0,0,1-3.3-7.811c3.311-3.408,6.294-6.041,8.926-8.363,6.352-5.606,8.538-7.759,8.331-11.987a42.313,42.313,0,0,0-1.644-7.638c-1.893-6.961-4.039-14.849-.367-21.169,1.975-3.4,5.325-5.729,9.959-6.927a4.6,4.6,0,1,1,2.3,8.916c-3.256.84-4.041,2.193-4.3,2.637-1.738,2.991-.059,9.166,1.289,14.127a47.483,47.483,0,0,1,1.957,9.6c.436,8.866-4.8,13.489-11.434,19.342-2.509,2.214-5.351,4.722-8.415,7.876A4.587,4.587,0,0,1,310.748,218.331Z" transform="translate(-277.716 -120.53)" fill="#2176ff"/>
        <path id="Path_32329" data-name="Path 32329" d="M322.9,151.611l7.206-1.838-1.679,9.2s-6.482.2-6.973-3.219Z" transform="translate(-279.778 -119.922)" fill="#ffc3bd"/>
        <path id="Path_32330" data-name="Path 32330" d="M336.243,154.654l-.555,2.4a3.022,3.022,0,0,1-3.356,2.312l-2.818-.389,1.679-9.2,3.3,1.428A3.02,3.02,0,0,1,336.243,154.654Z" transform="translate(-280.863 -119.922)" fill="#ffc3bd"/>
        <g id="Group_17589" data-name="Group 17589" transform="translate(0 69.767)">
          <rect id="Rectangle_4228" data-name="Rectangle 4228" width="4.764" height="40.575" rx="2.382" transform="translate(28.685 11.116) rotate(44.988)" fill="#263238"/>
          <rect id="Rectangle_4229" data-name="Rectangle 4229" width="4.764" height="40.575" rx="2.382" transform="translate(41.974 24.405) rotate(45)" fill="#263238"/>
          <g id="Group_17588" data-name="Group 17588" transform="translate(9.602)">
            <path id="Rectangle_4230" data-name="Rectangle 4230" d="M0,0H24.469a7.167,7.167,0,0,1,7.167,7.167v20.3a7.167,7.167,0,0,1-7.167,7.167H0a0,0,0,0,1,0,0V0A0,0,0,0,1,0,0Z" transform="translate(0 22.37) rotate(-45)" fill="#2176ff"/>
            <path id="Rectangle_4231" data-name="Rectangle 4231" d="M0,0H24.469a7.167,7.167,0,0,1,7.167,7.167v20.3a7.167,7.167,0,0,1-7.167,7.167H0a0,0,0,0,1,0,0V0A0,0,0,0,1,0,0Z" transform="translate(0 22.37) rotate(-45)" fill="#fff" opacity="0.7"/>
          </g>
          <path id="Path_32331" data-name="Path 32331" d="M290.608,214.558l-6.223,6.224,24.492,24.492,6.223-6.224a4.958,4.958,0,0,0-1.2-1.92L292.53,215.763A4.977,4.977,0,0,0,290.608,214.558Z" transform="translate(-274.785 -198.413)" fill="#2176ff" opacity="0.2"/>
          <rect id="Rectangle_4232" data-name="Rectangle 4232" width="10.358" height="40.575" rx="5.179" transform="translate(4.662 23.108) rotate(-45)" fill="#2176ff"/>
        </g>
      </g>
    </g>
    <g id="Page_not_found" data-name="Page not found" transform="translate(111.908 37.223)">
      <g id="Group_17595" data-name="Group 17595">
        <g id="Group_17591" data-name="Group 17591">
          <rect id="Rectangle_4233" data-name="Rectangle 4233" width="207.574" height="49.774" rx="8.42" transform="translate(0.092 0.864)" fill="#fff"/>
          <path id="Path_32332" data-name="Path 32332" d="M330.25,88.274h-193a7.935,7.935,0,0,1-7.925-7.926v-35.2a7.934,7.934,0,0,1,7.925-7.925h193a7.934,7.934,0,0,1,7.925,7.925v35.2A7.935,7.935,0,0,1,330.25,88.274Zm-193-49.774a6.655,6.655,0,0,0-6.647,6.647v35.2A6.655,6.655,0,0,0,137.248,87h193a6.655,6.655,0,0,0,6.647-6.647v-35.2A6.655,6.655,0,0,0,330.25,38.5Z" transform="translate(-129.323 -37.223)" fill="#263238"/>
        </g>
        <path id="Path_32380" data-name="Path 32380" d="M.629-5.933a6.034,6.034,0,0,1,.808-3.111A5.75,5.75,0,0,1,3.63-11.194a6.12,6.12,0,0,1,3.035-.774,6.165,6.165,0,0,1,3.358.927,5.276,5.276,0,0,1,2.134,2.626H9.826A3.123,3.123,0,0,0,8.551-9.809a3.783,3.783,0,0,0-1.887-.459,4.124,4.124,0,0,0-2.091.527A3.668,3.668,0,0,0,3.137-8.228a4.861,4.861,0,0,0-.518,2.3,4.861,4.861,0,0,0,.518,2.295A3.725,3.725,0,0,0,4.573-2.117a4.073,4.073,0,0,0,2.091.536A3.783,3.783,0,0,0,8.551-2.04,3.123,3.123,0,0,0,9.826-3.434h2.329A5.231,5.231,0,0,1,10.022-.816,6.207,6.207,0,0,1,6.664.1,6.106,6.106,0,0,1,3.621-.672a5.767,5.767,0,0,1-2.185-2.15A6.034,6.034,0,0,1,.629-5.933ZM18.479.153a4.8,4.8,0,0,1-2.4-.6,4.335,4.335,0,0,1-1.683-1.7,5.128,5.128,0,0,1-.612-2.542,5.03,5.03,0,0,1,.629-2.533,4.345,4.345,0,0,1,1.717-1.7,4.982,4.982,0,0,1,2.431-.6,4.982,4.982,0,0,1,2.431.6,4.345,4.345,0,0,1,1.717,1.7,5.03,5.03,0,0,1,.629,2.533A4.925,4.925,0,0,1,22.7-2.159a4.473,4.473,0,0,1-1.76,1.709A5.071,5.071,0,0,1,18.479.153Zm0-1.683a2.884,2.884,0,0,0,1.4-.357,2.72,2.72,0,0,0,1.063-1.071,3.443,3.443,0,0,0,.408-1.734,3.515,3.515,0,0,0-.391-1.726A2.64,2.64,0,0,0,19.924-7.48a2.836,2.836,0,0,0-1.394-.357,2.789,2.789,0,0,0-1.385.357,2.548,2.548,0,0,0-1.011,1.063,3.646,3.646,0,0,0-.374,1.726,3.287,3.287,0,0,0,.774,2.338A2.556,2.556,0,0,0,18.479-1.53ZM29.988-9.52a4.2,4.2,0,0,1,1.98.459A3.264,3.264,0,0,1,33.337-7.7a4.474,4.474,0,0,1,.493,2.176V0H31.909V-5.236a2.719,2.719,0,0,0-.629-1.93,2.239,2.239,0,0,0-1.717-.671,2.266,2.266,0,0,0-1.726.671,2.7,2.7,0,0,0-.638,1.93V0H25.262V-9.367H27.2V-8.3a3.208,3.208,0,0,1,1.215-.9A3.886,3.886,0,0,1,29.988-9.52Zm11.033,0A4.2,4.2,0,0,1,43-9.061,3.264,3.264,0,0,1,44.37-7.7a4.474,4.474,0,0,1,.493,2.176V0H42.942V-5.236a2.719,2.719,0,0,0-.629-1.93A2.239,2.239,0,0,0,40.6-7.837a2.266,2.266,0,0,0-1.725.671,2.7,2.7,0,0,0-.638,1.93V0H36.3V-9.367h1.938V-8.3a3.208,3.208,0,0,1,1.215-.9A3.886,3.886,0,0,1,41.021-9.52ZM55.913-4.913a6.059,6.059,0,0,1-.068.952H48.688a2.6,2.6,0,0,0,.833,1.8,2.629,2.629,0,0,0,1.836.68,2.268,2.268,0,0,0,2.21-1.309h2.091A4.219,4.219,0,0,1,54.12-.672a4.514,4.514,0,0,1-2.763.825,4.784,4.784,0,0,1-2.406-.6,4.294,4.294,0,0,1-1.666-1.7,5.186,5.186,0,0,1-.6-2.542,5.308,5.308,0,0,1,.586-2.541,4.125,4.125,0,0,1,1.649-1.692,4.908,4.908,0,0,1,2.44-.6,4.771,4.771,0,0,1,2.363.578,4.084,4.084,0,0,1,1.615,1.623A4.89,4.89,0,0,1,55.913-4.913ZM53.89-5.525a2.205,2.205,0,0,0-.765-1.717,2.735,2.735,0,0,0-1.853-.646,2.489,2.489,0,0,0-1.717.638,2.664,2.664,0,0,0-.85,1.726Zm3.281.833a5.308,5.308,0,0,1,.586-2.541,4.172,4.172,0,0,1,1.624-1.692,4.7,4.7,0,0,1,2.38-.6,4.67,4.67,0,0,1,2.813.807,3.975,3.975,0,0,1,1.5,2.3H63.988A2.211,2.211,0,0,0,63.172-7.5a2.41,2.41,0,0,0-1.411-.391,2.346,2.346,0,0,0-1.9.841,3.56,3.56,0,0,0-.706,2.355,3.6,3.6,0,0,0,.706,2.363,2.336,2.336,0,0,0,1.9.85,2.151,2.151,0,0,0,2.227-1.479h2.091a4.186,4.186,0,0,1-1.53,2.27,4.515,4.515,0,0,1-2.788.841,4.644,4.644,0,0,1-2.38-.6,4.23,4.23,0,0,1-1.624-1.7A5.308,5.308,0,0,1,57.171-4.692ZM70.278-7.786V-2.6a1,1,0,0,0,.246.757,1.226,1.226,0,0,0,.841.229h1.19V0h-1.53A2.949,2.949,0,0,1,69.02-.612a2.522,2.522,0,0,1-.7-1.989V-7.786H67.218V-9.367h1.105V-11.7h1.955v2.329h2.278v1.581Zm5.049-2.822a1.2,1.2,0,0,1-.884-.357,1.2,1.2,0,0,1-.357-.884,1.2,1.2,0,0,1,.357-.884,1.2,1.2,0,0,1,.884-.357,1.18,1.18,0,0,1,.867.357,1.2,1.2,0,0,1,.357.884,1.2,1.2,0,0,1-.357.884A1.18,1.18,0,0,1,75.327-10.608Zm.952,1.241V0H74.341V-9.367ZM82.892.153a4.8,4.8,0,0,1-2.4-.6,4.335,4.335,0,0,1-1.683-1.7A5.128,5.128,0,0,1,78.2-4.692a5.03,5.03,0,0,1,.629-2.533,4.345,4.345,0,0,1,1.717-1.7,4.982,4.982,0,0,1,2.431-.6,4.982,4.982,0,0,1,2.431.6,4.345,4.345,0,0,1,1.717,1.7,5.03,5.03,0,0,1,.629,2.533,4.925,4.925,0,0,1-.646,2.533A4.473,4.473,0,0,1,85.349-.451,5.071,5.071,0,0,1,82.892.153Zm0-1.683a2.884,2.884,0,0,0,1.4-.357,2.72,2.72,0,0,0,1.063-1.071,3.443,3.443,0,0,0,.408-1.734,3.515,3.515,0,0,0-.391-1.726A2.64,2.64,0,0,0,84.337-7.48a2.836,2.836,0,0,0-1.394-.357,2.789,2.789,0,0,0-1.385.357,2.548,2.548,0,0,0-1.012,1.063,3.646,3.646,0,0,0-.374,1.726,3.287,3.287,0,0,0,.773,2.338A2.556,2.556,0,0,0,82.892-1.53ZM94.4-9.52a4.2,4.2,0,0,1,1.98.459A3.264,3.264,0,0,1,97.75-7.7a4.474,4.474,0,0,1,.493,2.176V0H96.322V-5.236a2.719,2.719,0,0,0-.629-1.93,2.239,2.239,0,0,0-1.717-.671,2.266,2.266,0,0,0-1.725.671,2.7,2.7,0,0,0-.638,1.93V0H89.675V-9.367h1.938V-8.3a3.208,3.208,0,0,1,1.215-.9A3.886,3.886,0,0,1,94.4-9.52Zm12.665-.731v3.468h4.08V-5.2h-4.08v3.621h4.59V0h-6.528V-11.832h6.528v1.581Zm8.908,2.244A3.044,3.044,0,0,1,117.1-9.121a3.344,3.344,0,0,1,1.674-.4v2.006h-.493a2.36,2.36,0,0,0-1.726.578,2.764,2.764,0,0,0-.587,2.006V0h-1.938V-9.367h1.938Zm6.528,0a3.044,3.044,0,0,1,1.131-1.114,3.344,3.344,0,0,1,1.674-.4v2.006h-.493a2.36,2.36,0,0,0-1.726.578A2.764,2.764,0,0,0,122.5-4.93V0h-1.938V-9.367H122.5Zm8.653,8.16a4.8,4.8,0,0,1-2.4-.6,4.335,4.335,0,0,1-1.683-1.7,5.128,5.128,0,0,1-.612-2.542,5.03,5.03,0,0,1,.629-2.533,4.345,4.345,0,0,1,1.717-1.7,4.982,4.982,0,0,1,2.431-.6,4.982,4.982,0,0,1,2.431.6,4.345,4.345,0,0,1,1.717,1.7,5.03,5.03,0,0,1,.629,2.533,4.925,4.925,0,0,1-.646,2.533,4.473,4.473,0,0,1-1.76,1.709A5.071,5.071,0,0,1,131.155.153Zm0-1.683a2.884,2.884,0,0,0,1.4-.357,2.72,2.72,0,0,0,1.063-1.071,3.443,3.443,0,0,0,.408-1.734,3.515,3.515,0,0,0-.391-1.726A2.64,2.64,0,0,0,132.6-7.48a2.836,2.836,0,0,0-1.394-.357,2.789,2.789,0,0,0-1.385.357,2.548,2.548,0,0,0-1.011,1.063,3.646,3.646,0,0,0-.374,1.726,3.287,3.287,0,0,0,.773,2.338A2.556,2.556,0,0,0,131.155-1.53Zm8.721-6.477a3.044,3.044,0,0,1,1.131-1.114,3.344,3.344,0,0,1,1.674-.4v2.006h-.493a2.36,2.36,0,0,0-1.725.578,2.764,2.764,0,0,0-.587,2.006V0h-1.938V-9.367h1.938Z" transform="translate(31.76 31.999)" fill="#444"/>
        <g id="Group_17627" data-name="Group 17627" transform="translate(-164.321 -40.46)">
          <g id="Group_17600" data-name="Group 17600" transform="translate(207.413 120.442)">
            <circle id="Ellipse_616" data-name="Ellipse 616" cx="64.759" cy="64.759" r="64.759" transform="translate(0 125.899) rotate(-76.424)" fill="#fff" stroke="#444" stroke-width="2"/>
          </g>
          <g id="Group_17610" data-name="Group 17610" transform="translate(249.022 177.83)">
            <g id="Group_17609" data-name="Group 17609">
              <g id="Group_17608" data-name="Group 17608">
                <g id="Group_17601" data-name="Group 17601" transform="translate(28.745 43.918)">
                  <path id="Path_32346" data-name="Path 32346" d="M272.154,203.632a5.351,5.351,0,1,1-5.325-5.376A5.351,5.351,0,0,1,272.154,203.632Z" transform="translate(-261.452 -198.256)" fill="#444"/>
                </g>
                <g id="Group_17603" data-name="Group 17603" transform="translate(18.315 31.694)">
                  <g id="Group_17602" data-name="Group 17602">
                    <path id="Path_32347" data-name="Path 32347" d="M258.528,199.588a14.826,14.826,0,0,1,21.454-.284c2.731,2.754,7.008-1.482,4.275-4.236a20.912,20.912,0,0,0-29.966.245c-2.67,2.8,1.558,7.088,4.236,4.275Z" transform="translate(-253.44 -188.866)" fill="#444"/>
                  </g>
                </g>
                <g id="Group_17605" data-name="Group 17605">
                  <g id="Group_17604" data-name="Group 17604">
                    <path id="Path_32348" data-name="Path 32348" d="M244.6,182.03c8.137-7.035,17.85-11.462,28.728-11.489a42.625,42.625,0,0,1,29.308,11.216c2.821,2.649,7.107-1.578,4.275-4.236a48.874,48.874,0,0,0-33.555-13c-12.518.031-23.641,5.148-32.993,13.233-2.936,2.537,1.316,6.8,4.236,4.275Z" transform="translate(-239.373 -164.522)" fill="#444"/>
                  </g>
                </g>
                <g id="Group_17607" data-name="Group 17607" transform="translate(7.334 15.509)">
                  <g id="Group_17606" data-name="Group 17606">
                    <path id="Path_32349" data-name="Path 32349" d="M250.072,192.236a29.436,29.436,0,0,1,43.261-.617c2.707,2.78,6.982-1.457,4.277-4.236a35.446,35.446,0,0,0-51.774.578c-2.627,2.839,1.6,7.127,4.236,4.275Z" transform="translate(-245.006 -176.434)" fill="#444"/>
                  </g>
                </g>
              </g>
            </g>
          </g>
          <g id="Group_17626" data-name="Group 17626" transform="translate(285.322 160.434)">
            <g id="Group_17614" data-name="Group 17614" transform="translate(0 0)">
              <g id="Group_17613" data-name="Group 17613">
                <g id="Group_17612" data-name="Group 17612">
                  <g id="Group_17611" data-name="Group 17611">
                    <circle id="Ellipse_617" data-name="Ellipse 617" cx="22.09" cy="22.09" r="22.09" transform="matrix(0.174, -0.985, 0.985, 0.174, 0, 43.504)" fill="#2176ff"/>
                  </g>
                </g>
              </g>
            </g>
            <g id="Group_17625" data-name="Group 17625" transform="translate(17.561 16.309)">
              <g id="Group_17619" data-name="Group 17619" transform="translate(0 0)">
                <g id="Group_17618" data-name="Group 17618" transform="translate(0 0)">
                  <g id="Group_17617" data-name="Group 17617">
                    <g id="Group_17616" data-name="Group 17616">
                      <g id="Group_17615" data-name="Group 17615">
                        <rect id="Rectangle_4236" data-name="Rectangle 4236" width="4.427" height="19.836" transform="translate(14.026 0) rotate(45)" fill="#fff"/>
                      </g>
                    </g>
                  </g>
                </g>
              </g>
              <g id="Group_17624" data-name="Group 17624" transform="translate(0 0)">
                <g id="Group_17623" data-name="Group 17623" transform="translate(0 0)">
                  <g id="Group_17622" data-name="Group 17622">
                    <g id="Group_17621" data-name="Group 17621">
                      <g id="Group_17620" data-name="Group 17620">
                        <rect id="Rectangle_4237" data-name="Rectangle 4237" width="4.427" height="19.836" transform="translate(0 3.13) rotate(-45)" fill="#fff"/>
                      </g>
                    </g>
                  </g>
                </g>
              </g>
            </g>
          </g>
        </g>
      </g>
    </g>
  </g>
</svg>
